<svg viewBox="6.062 4.163 224.13 35.81" width="224.13" height="35.81" color-interpolation-filters="sRGB" style="margin:auto" xmlns="http://www.w3.org/2000/svg"><rect width="100%" height="100%" fill="none" class="background"/><g fill="#fff" class="basesvg"><path d="M31.54195832 21.44297801c.49-.22000065 3.97-1.95000581 3.97-7.44002217 0-5.11001523-3.8-9.84002933-12.66-9.84002933h-15.21c-1.25 0-1.58.6000018-1.58 1.58000471v32.6500973c0 .98000293.33 1.58000472 1.58 1.58000472h15.97c7.55 0 12.93-3.53001052 12.93-10.43003109 0-5.8700175-4.56-7.94002366-5-8.10002414Zm-7.82 10.81003222h-9.13V11.82294934h8.26c2.83 0 4.51.60000179 4.51 3.0500091 0 2.12000631-1.36 3.2600097-4.51 3.2600097h-.71c-1.25 0-1.57.6000018-1.57 1.57000469v4.1300123c0 .98000292.32 1.58000471 1.57 1.58000471h1.25c2.61 0 4.51.76000227 4.51 3.31000987 0 2.4500073-1.52 3.53001052-4.18 3.53001052ZM70.12195313 4.22292585h-5.38c-.98 0-1.57.32000096-1.57 1.57000468v22.06006574c0 3.43001023-2.29 4.698014-5.87 4.698014-3.59 0-5.82-1.26800377-5.82-4.698014V5.79293053c0-1.25000372-.59-1.57000468-1.57-1.57000468h-5.38c-.98 0-1.58.32000096-1.58 1.57000468v23.26006932c0 8.53002542 7.88 10.92003255 14.35 10.92003255 6.46 0 14.4-2.39000713 14.4-10.92003255V5.79293053c0-1.25000372-.6-1.57000468-1.58-1.57000468Zm24.7200052 28.31008521h-3.42V11.7729492h3.26c1.25 0 1.58-.60000179 1.58-1.5800047V5.79293136c0-.97000289-.33-1.57000468-1.58-1.57000468h-15.1c-1.25 0-1.58.60000179-1.58 1.57000468v4.40001311c0 .98000292.33 1.58000471 1.58 1.58000471h3.31v20.76006187h-3.42c-1.25 0-1.58.59000176-1.58 1.57000468v4.29001279c0 .98000292.33 1.5800047 1.58 1.5800047h15.37c1.25 0 1.58-.60000178 1.58-1.5800047v-4.29001279c0-.98000292-.33-1.57000468-1.58-1.57000468Zm32.77-.1700005h-15.65V5.79293137c0-1.25000372-.6-1.57000468-1.58-1.57000468h-5.38c-.97 0-1.57.32000096-1.57 1.57000468v32.60009716c0 .98000292.33 1.5800047 1.57 1.5800047h22.61c1.25 0 1.57-.60000178 1.57-1.5800047v-4.45001327c0-.98000292-.32-1.5800047-1.57-1.5800047Zm21.19-28.14008386h-12.17c-1.25 0-1.58.60000178-1.58 1.57000467v32.60009716c0 .98000292.33 1.5800047 1.58 1.5800047h12.17c6.46 0 14.61-3.690011 14.61-12.23003644V16.4429631c0-8.47002524-8.15-12.22003642-14.61-12.22003642Zm6.08 22.76006782c0 3.48001037-2.5 5.44001621-6.08 5.44001621h-5.22V11.7729492h5.22c3.58 0 6.08 2.010006 6.08 5.43001619v9.78002914Zm41.41 5.38001604h-17.34v-7.17002137h14.57c1.25 0 1.57-.6000018 1.57-1.57000468v-4.24001264c0-.98000292-.32-1.5800047-1.57-1.5800047h-14.57v-5.92001765h16.41c1.25 0 1.58-.60000179 1.58-1.5800047V5.79293136c0-.97000289-.33-1.57000468-1.58-1.57000468h-23.41c-1.25 0-1.58.60000179-1.58 1.57000468v32.60009716c0 .98000292.33 1.5800047 1.58 1.5800047h24.34c1.25 0 1.57-.60000178 1.57-1.5800047v-4.45001327c0-.98000292-.32-1.5800047-1.57-1.5800047Zm32.33 0h-15.65V5.79293137c0-1.25000372-.6-1.57000468-1.58-1.57000468h-5.38c-.97 0-1.57.32000096-1.57 1.57000468v32.60009716c0 .98000292.32 1.5800047 1.57 1.5800047h22.61c1.25 0 1.57-.60000178 1.57-1.5800047v-4.45001327c0-.98000292-.32-1.5800047-1.57-1.5800047Z" data-gra="path-name" class="tp-name"/></g></svg>